<?xml version="1.0" encoding="UTF-8" standalone="no"?>
<!-- Created with Inkscape (http://www.inkscape.org/) -->

<svg
   width="32"
   height="32"
   viewBox="0 0 8.4666667 8.4666667"
   version="1.1"
   id="svg832"
   inkscape:version="1.1 (c68e22c387, 2021-05-23)"
   sodipodi:docname="UserIcon.svg"
   xmlns:inkscape="http://www.inkscape.org/namespaces/inkscape"
   xmlns:sodipodi="http://sodipodi.sourceforge.net/DTD/sodipodi-0.dtd"
   xmlns="http://www.w3.org/2000/svg"
   xmlns:svg="http://www.w3.org/2000/svg">
  <sodipodi:namedview
     id="namedview834"
     pagecolor="#ffffff"
     bordercolor="#666666"
     borderopacity="1.0"
     inkscape:pageshadow="2"
     inkscape:pageopacity="0.0"
     inkscape:pagecheckerboard="0"
     inkscape:document-units="mm"
     showgrid="true"
     units="px"
     inkscape:zoom="16"
     inkscape:cx="11.375"
     inkscape:cy="18.625"
     inkscape:window-width="1920"
     inkscape:window-height="1011"
     inkscape:window-x="1920"
     inkscape:window-y="32"
     inkscape:window-maximized="1"
     inkscape:current-layer="layer1">
    <inkscape:grid
       type="xygrid"
       id="grid935" />
  </sodipodi:namedview>
  <defs
     id="defs829" />
  <g
     inkscape:label="Layer 1"
     inkscape:groupmode="layer"
     id="layer1">
    <ellipse
       style="fill:#3d5456;fill-opacity:1;stroke:none;stroke-width:0.194735;stroke-linecap:round;stroke-linejoin:round;stroke-opacity:0.75189"
       id="mouth-highlight"
       cx="3.9476936"
       cy="2.4333961"
       rx="0.82490826"
       ry="0.45053834"
       inkscape:label="Mouth-Highlight" />
    <path
       style="fill:#000000;fill-opacity:1;stroke:none;stroke-width:0.245246px;stroke-linecap:butt;stroke-linejoin:miter;stroke-opacity:1"
       d="m 1.3229166,7.9374999 c 10e-8,-3.4098349 10e-8,-4.5464465 1.3229167,-4.5464465 1.0583334,0 1.5875,0 2.6458334,0 1.3229166,0 1.3229166,1.1366116 1.3229165,4.5464465 z"
       id="body"
       sodipodi:nodetypes="ccccc"
       inkscape:label="Body" />
    <path
       id="head"
       style="fill:#000000;fill-opacity:1;stroke:none;stroke-width:0.944883;stroke-linecap:round;stroke-linejoin:round;stroke-opacity:0.75189"
       d="M 3.9687499,0.90692139 A 1.0583333,1.0583333 0 0 0 2.9104166,1.9652547 1.0583333,1.0583333 0 0 0 3.9687499,3.023588 1.0583333,1.0583333 0 0 0 5.0270832,1.9652547 1.0583333,1.0583333 0 0 0 3.9687499,0.90692139 Z M 4.667932,2.38125 A 0.92604152,0.92604171 0 0 1 3.9682332,2.7006103 0.92604152,0.92604171 0 0 1 3.2680174,2.3817668 Z"
       inkscape:label="Head" />
  </g>
</svg>
